<mxfile host="65bd71144e" pages="3">
    <diagram id="A8txxnmd_eqe3HhGsSbr" name="Beispiel">
        <mxGraphModel dx="788" dy="862" grid="1" gridSize="10" guides="1" tooltips="1" connect="1" arrows="1" fold="1" page="1" pageScale="1" pageWidth="827" pageHeight="1169" math="0" shadow="0">
            <root>
                <mxCell id="7DdtdedRhiH3oK4WyvWr-0"/>
                <mxCell id="7DdtdedRhiH3oK4WyvWr-1" parent="7DdtdedRhiH3oK4WyvWr-0"/>
                <mxCell id="7DdtdedRhiH3oK4WyvWr-2" value="«System»&lt;br&gt;&lt;b&gt;Kaffeevollautomat&lt;/b&gt;" style="html=1;dropTarget=0;verticalAlign=top;fillColor=#f5f5f5;strokeColor=#666666;fontColor=#333333;sketch=1;" parent="7DdtdedRhiH3oK4WyvWr-1" vertex="1">
                    <mxGeometry x="110" y="40" width="560" height="290" as="geometry"/>
                </mxCell>
                <mxCell id="7DdtdedRhiH3oK4WyvWr-4" value="«component»&lt;br&gt;&lt;b&gt;Brühgruppe&lt;/b&gt;" style="html=1;dropTarget=0;verticalAlign=top;sketch=1;" parent="7DdtdedRhiH3oK4WyvWr-1" vertex="1">
                    <mxGeometry x="480" y="170" width="150" height="65" as="geometry"/>
                </mxCell>
                <mxCell id="7DdtdedRhiH3oK4WyvWr-26" style="edgeStyle=orthogonalEdgeStyle;rounded=0;orthogonalLoop=1;jettySize=auto;html=1;startArrow=box;startFill=0;endArrow=box;endFill=0;strokeColor=#1F1F1F;sketch=1;" parent="7DdtdedRhiH3oK4WyvWr-1" source="7DdtdedRhiH3oK4WyvWr-10" target="7DdtdedRhiH3oK4WyvWr-15" edge="1">
                    <mxGeometry relative="1" as="geometry"/>
                </mxCell>
                <mxCell id="7DdtdedRhiH3oK4WyvWr-27" style="edgeStyle=orthogonalEdgeStyle;rounded=0;orthogonalLoop=1;jettySize=auto;html=1;startArrow=box;startFill=0;endArrow=box;endFill=0;strokeColor=#1F1F1F;sketch=1;" parent="7DdtdedRhiH3oK4WyvWr-1" source="7DdtdedRhiH3oK4WyvWr-10" target="7DdtdedRhiH3oK4WyvWr-13" edge="1">
                    <mxGeometry relative="1" as="geometry"/>
                </mxCell>
                <mxCell id="7DdtdedRhiH3oK4WyvWr-28" style="edgeStyle=orthogonalEdgeStyle;rounded=0;orthogonalLoop=1;jettySize=auto;html=1;entryX=0;entryY=0.5;entryDx=0;entryDy=0;startArrow=box;startFill=0;endArrow=box;endFill=0;strokeColor=#1F1F1F;sketch=1;" parent="7DdtdedRhiH3oK4WyvWr-1" source="7DdtdedRhiH3oK4WyvWr-10" target="7DdtdedRhiH3oK4WyvWr-4" edge="1">
                    <mxGeometry relative="1" as="geometry">
                        <Array as="points">
                            <mxPoint x="280" y="203"/>
                        </Array>
                    </mxGeometry>
                </mxCell>
                <mxCell id="7DdtdedRhiH3oK4WyvWr-29" style="edgeStyle=orthogonalEdgeStyle;rounded=0;orthogonalLoop=1;jettySize=auto;html=1;entryX=0;entryY=0.5;entryDx=0;entryDy=0;startArrow=box;startFill=0;endArrow=box;endFill=0;strokeColor=#1F1F1F;sketch=1;" parent="7DdtdedRhiH3oK4WyvWr-1" source="7DdtdedRhiH3oK4WyvWr-10" target="7DdtdedRhiH3oK4WyvWr-20" edge="1">
                    <mxGeometry relative="1" as="geometry">
                        <Array as="points">
                            <mxPoint x="260" y="170"/>
                            <mxPoint x="370" y="170"/>
                            <mxPoint x="370" y="123"/>
                        </Array>
                    </mxGeometry>
                </mxCell>
                <mxCell id="7DdtdedRhiH3oK4WyvWr-10" value="«subsystem»&lt;b&gt;&lt;br&gt;Zentrale &lt;br&gt;Steuereinheit&lt;/b&gt;" style="html=1;dropTarget=0;verticalAlign=top;sketch=1;" parent="7DdtdedRhiH3oK4WyvWr-1" vertex="1">
                    <mxGeometry x="150" y="250" width="150" height="65" as="geometry"/>
                </mxCell>
                <mxCell id="7DdtdedRhiH3oK4WyvWr-13" value="«component»&lt;br&gt;&lt;b&gt;Auffangschale&lt;/b&gt;" style="html=1;dropTarget=0;verticalAlign=top;sketch=1;" parent="7DdtdedRhiH3oK4WyvWr-1" vertex="1">
                    <mxGeometry x="480" y="250" width="150" height="65" as="geometry"/>
                </mxCell>
                <mxCell id="7DdtdedRhiH3oK4WyvWr-15" value="«component»&lt;b&gt;&lt;br&gt;Wassertank&lt;/b&gt;" style="html=1;dropTarget=0;verticalAlign=top;sketch=1;" parent="7DdtdedRhiH3oK4WyvWr-1" vertex="1">
                    <mxGeometry x="150" y="90" width="150" height="65" as="geometry"/>
                </mxCell>
                <mxCell id="7DdtdedRhiH3oK4WyvWr-20" value="«component»&lt;b&gt;&lt;br&gt;Mahlwerk&lt;/b&gt;" style="html=1;dropTarget=0;verticalAlign=top;sketch=1;" parent="7DdtdedRhiH3oK4WyvWr-1" vertex="1">
                    <mxGeometry x="480" y="90" width="150" height="65" as="geometry"/>
                </mxCell>
            </root>
        </mxGraphModel>
    </diagram>
    <diagram id="--35fHNoS3o7pQdWPQj6" name="Darstellungselemente">
        <mxGraphModel dx="788" dy="862" grid="1" gridSize="10" guides="1" tooltips="1" connect="1" arrows="1" fold="1" page="1" pageScale="1" pageWidth="827" pageHeight="1169" math="0" shadow="0">
            <root>
                <mxCell id="0"/>
                <mxCell id="1" parent="0"/>
                <mxCell id="c4cbzYRpzLh5rreta_YC-18" style="edgeStyle=none;rounded=0;orthogonalLoop=1;jettySize=auto;html=1;startArrow=box;startFill=0;endArrow=circle;endFill=0;strokeColor=#1F1F1F;sketch=1;" parent="1" source="c4cbzYRpzLh5rreta_YC-1" edge="1">
                    <mxGeometry relative="1" as="geometry">
                        <mxPoint x="160" y="165" as="targetPoint"/>
                    </mxGeometry>
                </mxCell>
                <mxCell id="c4cbzYRpzLh5rreta_YC-1" value="«component»&lt;br&gt;&lt;b&gt;Bezeichnung&lt;/b&gt;" style="html=1;dropTarget=0;sketch=1;" parent="1" vertex="1">
                    <mxGeometry x="220" y="120" width="180" height="90" as="geometry"/>
                </mxCell>
                <mxCell id="c4cbzYRpzLh5rreta_YC-2" value="" style="shape=module;jettyWidth=8;jettyHeight=4;sketch=1;" parent="c4cbzYRpzLh5rreta_YC-1" vertex="1">
                    <mxGeometry x="1" width="20" height="20" relative="1" as="geometry">
                        <mxPoint x="-27" y="7" as="offset"/>
                    </mxGeometry>
                </mxCell>
                <mxCell id="c4cbzYRpzLh5rreta_YC-4" style="edgeStyle=orthogonalEdgeStyle;rounded=0;orthogonalLoop=1;jettySize=auto;html=1;endArrow=open;endFill=0;sketch=1;" parent="1" source="c4cbzYRpzLh5rreta_YC-3" target="c4cbzYRpzLh5rreta_YC-1" edge="1">
                    <mxGeometry relative="1" as="geometry"/>
                </mxCell>
                <mxCell id="c4cbzYRpzLh5rreta_YC-3" value="Bestandteil" style="html=1;sketch=1;" parent="1" vertex="1">
                    <mxGeometry x="520" y="140" width="88.89" height="50" as="geometry"/>
                </mxCell>
                <mxCell id="c4cbzYRpzLh5rreta_YC-5" value="Abhängigkeit" style="text;html=1;align=center;verticalAlign=middle;resizable=0;points=[];autosize=1;strokeColor=none;fillColor=none;sketch=1;" parent="1" vertex="1">
                    <mxGeometry x="430" y="140" width="80" height="20" as="geometry"/>
                </mxCell>
                <mxCell id="c4cbzYRpzLh5rreta_YC-9" style="rounded=0;orthogonalLoop=1;jettySize=auto;html=1;entryX=1;entryY=1;entryDx=0;entryDy=0;endArrow=open;endFill=0;sketch=1;" parent="1" source="c4cbzYRpzLh5rreta_YC-6" target="c4cbzYRpzLh5rreta_YC-1" edge="1">
                    <mxGeometry relative="1" as="geometry"/>
                </mxCell>
                <mxCell id="c4cbzYRpzLh5rreta_YC-6" value="Akteur" style="shape=umlActor;verticalLabelPosition=bottom;verticalAlign=top;html=1;sketch=1;" parent="1" vertex="1">
                    <mxGeometry x="520" y="240" width="40" height="80" as="geometry"/>
                </mxCell>
                <mxCell id="c4cbzYRpzLh5rreta_YC-10" value="Abhängigkeit" style="text;html=1;align=center;verticalAlign=middle;resizable=0;points=[];autosize=1;strokeColor=none;fillColor=none;rotation=30;sketch=1;" parent="1" vertex="1">
                    <mxGeometry x="430" y="220" width="80" height="20" as="geometry"/>
                </mxCell>
                <mxCell id="c4cbzYRpzLh5rreta_YC-13" style="edgeStyle=none;rounded=0;orthogonalLoop=1;jettySize=auto;html=1;endArrow=box;endFill=0;startArrow=halfCircle;startFill=0;sketch=1;" parent="1" target="c4cbzYRpzLh5rreta_YC-1" edge="1">
                    <mxGeometry relative="1" as="geometry">
                        <mxPoint x="310" y="250" as="sourcePoint"/>
                    </mxGeometry>
                </mxCell>
                <mxCell id="c4cbzYRpzLh5rreta_YC-15" value="benötigte&lt;br&gt;Schnittstelle" style="text;html=1;align=center;verticalAlign=middle;resizable=0;points=[];autosize=1;strokeColor=none;fillColor=none;sketch=1;" parent="1" vertex="1">
                    <mxGeometry x="270" y="255" width="80" height="30" as="geometry"/>
                </mxCell>
                <mxCell id="c4cbzYRpzLh5rreta_YC-19" value="angebotene&lt;br&gt;Schnittstelle" style="text;html=1;align=center;verticalAlign=middle;resizable=0;points=[];autosize=1;strokeColor=none;fillColor=none;sketch=1;" parent="1" vertex="1">
                    <mxGeometry x="130" y="180" width="80" height="30" as="geometry"/>
                </mxCell>
            </root>
        </mxGraphModel>
    </diagram>
    <diagram id="F5OqE_GZpEBxVj0D66kr" name="Komplexbeispiel">
        <mxGraphModel dx="788" dy="862" grid="1" gridSize="10" guides="1" tooltips="1" connect="1" arrows="1" fold="1" page="1" pageScale="1" pageWidth="827" pageHeight="1169" math="0" shadow="0">
            <root>
                <mxCell id="8dKSP0gKcI_-LUn51-ES-0"/>
                <mxCell id="8dKSP0gKcI_-LUn51-ES-1" parent="8dKSP0gKcI_-LUn51-ES-0"/>
                <mxCell id="8dKSP0gKcI_-LUn51-ES-2" value="«System»&lt;br&gt;&lt;b&gt;Kaffeevollautomat&lt;/b&gt;" style="html=1;dropTarget=0;verticalAlign=top;fillColor=#f5f5f5;strokeColor=#666666;fontColor=#333333;sketch=1;" parent="8dKSP0gKcI_-LUn51-ES-1" vertex="1">
                    <mxGeometry x="110" y="40" width="560" height="290" as="geometry"/>
                </mxCell>
                <mxCell id="8dKSP0gKcI_-LUn51-ES-3" value="" style="shape=module;jettyWidth=8;jettyHeight=4;sketch=1;" parent="8dKSP0gKcI_-LUn51-ES-2" vertex="1">
                    <mxGeometry x="1" width="20" height="20" relative="1" as="geometry">
                        <mxPoint x="-27" y="7" as="offset"/>
                    </mxGeometry>
                </mxCell>
                <mxCell id="8dKSP0gKcI_-LUn51-ES-6" value="«component»&lt;br&gt;&lt;b&gt;Brühgruppe&lt;/b&gt;" style="html=1;dropTarget=0;verticalAlign=top;sketch=1;" parent="8dKSP0gKcI_-LUn51-ES-1" vertex="1">
                    <mxGeometry x="480" y="170" width="150" height="65" as="geometry"/>
                </mxCell>
                <mxCell id="8dKSP0gKcI_-LUn51-ES-7" value="" style="shape=module;jettyWidth=8;jettyHeight=4;verticalAlign=top;sketch=1;" parent="8dKSP0gKcI_-LUn51-ES-6" vertex="1">
                    <mxGeometry x="1" width="20" height="20" relative="1" as="geometry">
                        <mxPoint x="-27" y="7" as="offset"/>
                    </mxGeometry>
                </mxCell>
                <mxCell id="8dKSP0gKcI_-LUn51-ES-20" style="edgeStyle=none;rounded=0;orthogonalLoop=1;jettySize=auto;html=1;startArrow=box;startFill=0;endArrow=halfCircle;endFill=0;strokeColor=#1F1F1F;sketch=1;" parent="8dKSP0gKcI_-LUn51-ES-1" source="8dKSP0gKcI_-LUn51-ES-8" edge="1">
                    <mxGeometry relative="1" as="geometry">
                        <mxPoint x="225" y="200" as="targetPoint"/>
                    </mxGeometry>
                </mxCell>
                <mxCell id="8dKSP0gKcI_-LUn51-ES-21" style="edgeStyle=orthogonalEdgeStyle;rounded=0;orthogonalLoop=1;jettySize=auto;html=1;startArrow=box;startFill=0;endArrow=halfCircle;endFill=0;strokeColor=#1F1F1F;exitX=0.75;exitY=0;exitDx=0;exitDy=0;sketch=1;" parent="8dKSP0gKcI_-LUn51-ES-1" source="8dKSP0gKcI_-LUn51-ES-8" edge="1">
                    <mxGeometry relative="1" as="geometry">
                        <mxPoint x="380" y="120" as="targetPoint"/>
                        <Array as="points">
                            <mxPoint x="263" y="170"/>
                            <mxPoint x="360" y="170"/>
                        </Array>
                    </mxGeometry>
                </mxCell>
                <mxCell id="8dKSP0gKcI_-LUn51-ES-22" style="edgeStyle=orthogonalEdgeStyle;rounded=0;orthogonalLoop=1;jettySize=auto;html=1;startArrow=box;startFill=0;endArrow=halfCircle;endFill=0;strokeColor=#1F1F1F;exitX=0.89;exitY=0.01;exitDx=0;exitDy=0;exitPerimeter=0;sketch=1;" parent="8dKSP0gKcI_-LUn51-ES-1" source="8dKSP0gKcI_-LUn51-ES-8" edge="1">
                    <mxGeometry relative="1" as="geometry">
                        <mxPoint x="380" y="201" as="targetPoint"/>
                        <mxPoint x="283" y="240" as="sourcePoint"/>
                        <Array as="points">
                            <mxPoint x="284" y="201"/>
                        </Array>
                    </mxGeometry>
                </mxCell>
                <mxCell id="8dKSP0gKcI_-LUn51-ES-23" style="edgeStyle=orthogonalEdgeStyle;rounded=0;orthogonalLoop=1;jettySize=auto;html=1;startArrow=box;startFill=0;endArrow=halfCircle;endFill=0;strokeColor=#1F1F1F;sketch=1;" parent="8dKSP0gKcI_-LUn51-ES-1" edge="1">
                    <mxGeometry relative="1" as="geometry">
                        <mxPoint x="380" y="281" as="targetPoint"/>
                        <mxPoint x="300" y="281" as="sourcePoint"/>
                    </mxGeometry>
                </mxCell>
                <mxCell id="8dKSP0gKcI_-LUn51-ES-8" value="«subsystem»&lt;br&gt;&lt;b&gt;Zentrale &lt;br&gt;Steuereinheit&lt;/b&gt;" style="html=1;dropTarget=0;verticalAlign=top;sketch=1;" parent="8dKSP0gKcI_-LUn51-ES-1" vertex="1">
                    <mxGeometry x="150" y="250" width="150" height="65" as="geometry"/>
                </mxCell>
                <mxCell id="8dKSP0gKcI_-LUn51-ES-9" value="" style="shape=module;jettyWidth=8;jettyHeight=4;verticalAlign=top;sketch=1;" parent="8dKSP0gKcI_-LUn51-ES-8" vertex="1">
                    <mxGeometry x="1" width="20" height="20" relative="1" as="geometry">
                        <mxPoint x="-27" y="7" as="offset"/>
                    </mxGeometry>
                </mxCell>
                <mxCell id="8dKSP0gKcI_-LUn51-ES-14" style="edgeStyle=none;rounded=0;orthogonalLoop=1;jettySize=auto;html=1;startArrow=box;startFill=0;endArrow=circle;endFill=0;strokeColor=#1F1F1F;sketch=1;" parent="8dKSP0gKcI_-LUn51-ES-1" source="8dKSP0gKcI_-LUn51-ES-10" edge="1">
                    <mxGeometry relative="1" as="geometry">
                        <mxPoint x="380" y="280" as="targetPoint"/>
                    </mxGeometry>
                </mxCell>
                <mxCell id="8dKSP0gKcI_-LUn51-ES-10" value="«component»&lt;br&gt;&lt;b&gt;Auffangschale&lt;/b&gt;" style="html=1;dropTarget=0;verticalAlign=top;sketch=1;" parent="8dKSP0gKcI_-LUn51-ES-1" vertex="1">
                    <mxGeometry x="480" y="250" width="150" height="65" as="geometry"/>
                </mxCell>
                <mxCell id="8dKSP0gKcI_-LUn51-ES-11" value="" style="shape=module;jettyWidth=8;jettyHeight=4;verticalAlign=top;sketch=1;" parent="8dKSP0gKcI_-LUn51-ES-10" vertex="1">
                    <mxGeometry x="1" width="20" height="20" relative="1" as="geometry">
                        <mxPoint x="-27" y="7" as="offset"/>
                    </mxGeometry>
                </mxCell>
                <mxCell id="8dKSP0gKcI_-LUn51-ES-15" value="«component»&lt;br&gt;&lt;b&gt;Wassertank&lt;/b&gt;" style="html=1;dropTarget=0;verticalAlign=top;sketch=1;" parent="8dKSP0gKcI_-LUn51-ES-1" vertex="1">
                    <mxGeometry x="150" y="90" width="150" height="65" as="geometry"/>
                </mxCell>
                <mxCell id="8dKSP0gKcI_-LUn51-ES-16" value="" style="shape=module;jettyWidth=8;jettyHeight=4;verticalAlign=top;sketch=1;" parent="8dKSP0gKcI_-LUn51-ES-15" vertex="1">
                    <mxGeometry x="1" width="20" height="20" relative="1" as="geometry">
                        <mxPoint x="-27" y="7" as="offset"/>
                    </mxGeometry>
                </mxCell>
                <mxCell id="8dKSP0gKcI_-LUn51-ES-17" style="edgeStyle=none;rounded=0;orthogonalLoop=1;jettySize=auto;html=1;startArrow=box;startFill=0;endArrow=circle;endFill=0;strokeColor=#1F1F1F;exitX=0;exitY=0.5;exitDx=0;exitDy=0;sketch=1;" parent="8dKSP0gKcI_-LUn51-ES-1" source="8dKSP0gKcI_-LUn51-ES-6" edge="1">
                    <mxGeometry relative="1" as="geometry">
                        <mxPoint x="380" y="201" as="targetPoint"/>
                        <mxPoint x="444" y="202.0710791366908" as="sourcePoint"/>
                    </mxGeometry>
                </mxCell>
                <mxCell id="8dKSP0gKcI_-LUn51-ES-18" style="edgeStyle=none;rounded=0;orthogonalLoop=1;jettySize=auto;html=1;startArrow=box;startFill=0;endArrow=circle;endFill=0;strokeColor=#1F1F1F;exitX=0;exitY=0.5;exitDx=0;exitDy=0;sketch=1;" parent="8dKSP0gKcI_-LUn51-ES-1" edge="1">
                    <mxGeometry relative="1" as="geometry">
                        <mxPoint x="382" y="120" as="targetPoint"/>
                        <mxPoint x="480" y="120.5" as="sourcePoint"/>
                    </mxGeometry>
                </mxCell>
                <mxCell id="8dKSP0gKcI_-LUn51-ES-19" style="edgeStyle=none;rounded=0;orthogonalLoop=1;jettySize=auto;html=1;startArrow=box;startFill=0;endArrow=circle;endFill=0;strokeColor=#1F1F1F;sketch=1;" parent="8dKSP0gKcI_-LUn51-ES-1" source="8dKSP0gKcI_-LUn51-ES-15" edge="1">
                    <mxGeometry relative="1" as="geometry">
                        <mxPoint x="225" y="202" as="targetPoint"/>
                        <mxPoint x="284" y="203.03107913669078" as="sourcePoint"/>
                    </mxGeometry>
                </mxCell>
                <mxCell id="8dKSP0gKcI_-LUn51-ES-12" value="«component»&lt;br&gt;&lt;b&gt;Mahlwerk&lt;/b&gt;" style="html=1;dropTarget=0;verticalAlign=top;sketch=1;" parent="8dKSP0gKcI_-LUn51-ES-1" vertex="1">
                    <mxGeometry x="480" y="90" width="150" height="65" as="geometry"/>
                </mxCell>
                <mxCell id="8dKSP0gKcI_-LUn51-ES-13" value="" style="shape=module;jettyWidth=8;jettyHeight=4;verticalAlign=top;sketch=1;" parent="8dKSP0gKcI_-LUn51-ES-12" vertex="1">
                    <mxGeometry x="1" width="20" height="20" relative="1" as="geometry">
                        <mxPoint x="-27" y="7" as="offset"/>
                    </mxGeometry>
                </mxCell>
                <mxCell id="8dKSP0gKcI_-LUn51-ES-24" value="Füllstandssensor" style="text;html=1;align=center;verticalAlign=middle;resizable=0;points=[];autosize=1;strokeColor=none;fillColor=none;sketch=1;" parent="8dKSP0gKcI_-LUn51-ES-1" vertex="1">
                    <mxGeometry x="110" y="187" width="110" height="20" as="geometry"/>
                </mxCell>
                <mxCell id="8dKSP0gKcI_-LUn51-ES-25" value="Füllstandssensor" style="text;html=1;align=center;verticalAlign=middle;resizable=0;points=[];autosize=1;strokeColor=none;fillColor=none;sketch=1;" parent="8dKSP0gKcI_-LUn51-ES-1" vertex="1">
                    <mxGeometry x="330" y="290" width="110" height="20" as="geometry"/>
                </mxCell>
                <mxCell id="8dKSP0gKcI_-LUn51-ES-26" value="Brühvorgangs-&lt;br&gt;steuerung" style="text;html=1;align=center;verticalAlign=middle;resizable=0;points=[];autosize=1;strokeColor=none;fillColor=none;sketch=1;" parent="8dKSP0gKcI_-LUn51-ES-1" vertex="1">
                    <mxGeometry x="340" y="210" width="90" height="30" as="geometry"/>
                </mxCell>
                <mxCell id="8dKSP0gKcI_-LUn51-ES-27" value="Mahlwerksteuerung" style="text;html=1;align=center;verticalAlign=middle;resizable=0;points=[];autosize=1;strokeColor=none;fillColor=none;sketch=1;" parent="8dKSP0gKcI_-LUn51-ES-1" vertex="1">
                    <mxGeometry x="330" y="90" width="120" height="20" as="geometry"/>
                </mxCell>
                <mxCell id="zawLdsEzJvPoMGxvagWJ-2" value="" style="edgeStyle=none;html=1;endArrow=open;endFill=0;sketch=1;" parent="8dKSP0gKcI_-LUn51-ES-1" source="zawLdsEzJvPoMGxvagWJ-0" target="8dKSP0gKcI_-LUn51-ES-8" edge="1">
                    <mxGeometry relative="1" as="geometry">
                        <mxPoint x="220" y="530" as="targetPoint"/>
                    </mxGeometry>
                </mxCell>
                <mxCell id="zawLdsEzJvPoMGxvagWJ-0" value="Nutzer" style="shape=umlActor;verticalLabelPosition=bottom;verticalAlign=top;html=1;sketch=1;" parent="8dKSP0gKcI_-LUn51-ES-1" vertex="1">
                    <mxGeometry x="205" y="370" width="40" height="80" as="geometry"/>
                </mxCell>
            </root>
        </mxGraphModel>
    </diagram>
</mxfile>